<svg id="Group_113" data-name="Group 113" xmlns="http://www.w3.org/2000/svg" xmlns:xlink="http://www.w3.org/1999/xlink" width="83.105" height="72.041" viewBox="0 0 83.105 72.041">
  <defs>
    <clipPath id="clip-path">
      <rect id="Rectangle_2229" data-name="Rectangle 2229" width="83.105" height="72.04" fill="none"/>
    </clipPath>
  </defs>
  <g id="Group_112" data-name="Group 112" clip-path="url(#clip-path)">
    <path id="Path_564" data-name="Path 564" d="M15.353,0H48.125A10.6,10.6,0,0,1,58.8,10.676V28.551h8.938A10.755,10.755,0,0,1,78.414,39.227V54.868l4.469,12.414a3.423,3.423,0,0,1-4.469,4.469c-2.731-.993-8.193-3.476-10.676-3.476H34.967A10.6,10.6,0,0,1,24.291,57.6V39.972H15.353c-2.234,0-8.193,2.483-10.676,3.476A3.515,3.515,0,0,1,.209,38.979L4.678,26.565V10.676A10.755,10.755,0,0,1,15.353,0M34.967,32.772a6.41,6.41,0,0,0-6.455,6.455V57.6a6.262,6.262,0,0,0,6.455,6.455H67.739c2.979,0,7.7,2.234,10.676,3.228L74.194,56.109V39.227a6.41,6.41,0,0,0-6.455-6.455ZM24.788,35.751a10.658,10.658,0,0,1,10.179-7.2H54.58V10.676a6.41,6.41,0,0,0-6.455-6.455H15.353A6.573,6.573,0,0,0,8.9,10.676V27.558L4.678,38.979c2.979-1.241,7.7-3.476,10.676-3.228Z" transform="translate(0)"/>
    <path id="Path_565" data-name="Path 565" d="M159.316,181a3.476,3.476,0,1,1-3.476,3.476A3.476,3.476,0,0,1,159.316,181" transform="translate(-117.149 -136.063)" fill-rule="evenodd"/>
    <path id="Path_566" data-name="Path 566" d="M196.316,181a3.476,3.476,0,1,1-3.476,3.476A3.476,3.476,0,0,1,196.316,181" transform="translate(-144.963 -136.063)" fill-rule="evenodd"/>
    <path id="Path_567" data-name="Path 567" d="M233.316,181a3.476,3.476,0,1,1-3.476,3.476A3.476,3.476,0,0,1,233.316,181" transform="translate(-172.777 -136.063)" fill-rule="evenodd"/>
  </g>
</svg>
