<svg id="Group_128" data-name="Group 128" xmlns="http://www.w3.org/2000/svg" xmlns:xlink="http://www.w3.org/1999/xlink" width="78.999" height="78.766" viewBox="0 0 78.999 78.766">
  <defs>
    <clipPath id="clip-path">
      <rect id="Rectangle_2214" data-name="Rectangle 2214" width="78.999" height="78.766" fill="none"/>
    </clipPath>
  </defs>
  <g id="Group_84" data-name="Group 84" clip-path="url(#clip-path)">
    <path id="Path_510" data-name="Path 510" d="M379.7,102.234v51.692a1.21,1.21,0,0,0,2.418,0V102.254a1.21,1.21,0,0,0-2.418-.02" transform="translate(-303.18 -80.704)"/>
    <path id="Path_511" data-name="Path 511" d="M2.418,153.9V102.124a1.21,1.21,0,0,0-2.418,0V153.9a1.21,1.21,0,0,0,2.418,0" transform="translate(0 -80.614)"/>
    <path id="Path_512" data-name="Path 512" d="M1.209,352.8H74.646a21.334,21.334,0,0,0,3,0h.141L76.58,351.6v5.623l1.209-1.209H4.353a21.324,21.324,0,0,0-3,0H1.209l1.209,1.209V351.6A1.21,1.21,0,0,0,0,351.6v5.623a1.226,1.226,0,0,0,1.209,1.209H68.358c3.083,0,6.207.141,9.29,0h.141A1.226,1.226,0,0,0,79,357.218V351.6a1.226,1.226,0,0,0-1.209-1.209H10.641c-3.083,0-6.207-.141-9.29,0H1.209a1.21,1.21,0,0,0,0,2.418" transform="translate(0 -279.724)"/>
    <path id="Path_513" data-name="Path 513" d="M63.3,45.853h14.49L76.58,44.644v14.55l1.209-1.209H4.353a21.33,21.33,0,0,0-3,0H1.209l1.209,1.209V44.644L1.209,45.853H15.7a1.21,1.21,0,0,0,0-2.418H1.209A1.226,1.226,0,0,0,0,44.644v14.55A1.226,1.226,0,0,0,1.209,60.4H68.358c3.083,0,6.207.141,9.29,0h.141A1.226,1.226,0,0,0,79,59.194V44.644a1.226,1.226,0,0,0-1.209-1.209H63.3a1.21,1.21,0,0,0,0,2.418" transform="translate(0 -34.682)"/>
    <path id="Path_514" data-name="Path 514" d="M146.558,43.435H116.289a1.21,1.21,0,0,0,0,2.418h30.269a1.21,1.21,0,0,0,0-2.418" transform="translate(-91.924 -34.682)"/>
    <path id="Path_515" data-name="Path 515" d="M77.331,17.58a3.18,3.18,0,0,1-3.124-3.124c-.02-.746,0-1.511,0-2.257,0-2.217-.06-4.434,0-6.65a3.133,3.133,0,0,1,6.227-.544,13.821,13.821,0,0,1,.04,2.237v4.01c0,1.028.02,2.076,0,3.1a3.2,3.2,0,0,1-3.144,3.224,1.21,1.21,0,0,0,0,2.418,5.692,5.692,0,0,0,5.26-3.789,10.913,10.913,0,0,0,.282-3.527V7.826A21.479,21.479,0,0,0,82.793,4.6c-.786-5.1-7.9-6.348-10.338-1.773a8,8,0,0,0-.665,3.93v4.776A26.152,26.152,0,0,0,71.87,15.3a5.612,5.612,0,0,0,5.461,4.675c1.552.081,1.552-2.338,0-2.4" transform="translate(-57.3 0)"/>
    <path id="Path_516" data-name="Path 516" d="M38.209,145.653H47.4l-1.209-1.209v9.19l1.209-1.209h-9.19l1.209,1.209v-9.19a1.21,1.21,0,0,0-2.418,0v9.19a1.226,1.226,0,0,0,1.209,1.209H47.4a1.226,1.226,0,0,0,1.209-1.209v-9.19a1.226,1.226,0,0,0-1.209-1.209h-9.19a1.21,1.21,0,0,0,0,2.418" transform="translate(-29.544 -114.369)"/>
    <path id="Path_517" data-name="Path 517" d="M103.309,145.653h9.19l-1.209-1.209v9.19l1.209-1.209h-9.19l1.209,1.209v-9.19a1.21,1.21,0,0,0-2.418,0v9.19a1.226,1.226,0,0,0,1.209,1.209h9.19a1.226,1.226,0,0,0,1.209-1.209v-9.19a1.226,1.226,0,0,0-1.209-1.209h-9.19a1.21,1.21,0,0,0,0,2.418" transform="translate(-81.524 -114.369)"/>
    <path id="Path_518" data-name="Path 518" d="M168.409,145.653h9.19l-1.209-1.209v9.19l1.209-1.209h-9.19l1.209,1.209v-9.19a1.21,1.21,0,0,0-2.418,0v9.19a1.226,1.226,0,0,0,1.209,1.209h9.19a1.226,1.226,0,0,0,1.209-1.209v-9.19a1.226,1.226,0,0,0-1.209-1.209h-9.19a1.21,1.21,0,0,0,0,2.418" transform="translate(-133.505 -114.369)"/>
    <path id="Path_519" data-name="Path 519" d="M233.609,145.653h9.19l-1.209-1.209v9.19l1.209-1.209h-9.19l1.209,1.209v-9.19a1.21,1.21,0,0,0-2.418,0v9.19a1.226,1.226,0,0,0,1.209,1.209h9.19a1.226,1.226,0,0,0,1.209-1.209v-9.19a1.226,1.226,0,0,0-1.209-1.209h-9.19a1.21,1.21,0,0,0,0,2.418" transform="translate(-185.565 -114.369)"/>
    <path id="Path_520" data-name="Path 520" d="M298.709,145.653h9.19l-1.209-1.209v9.19l1.209-1.209h-9.19l1.209,1.209v-9.19a1.21,1.21,0,0,0-2.418,0v9.19a1.226,1.226,0,0,0,1.209,1.209h9.19a1.226,1.226,0,0,0,1.209-1.209v-9.19a1.226,1.226,0,0,0-1.209-1.209h-9.19a1.21,1.21,0,0,0,0,2.418" transform="translate(-237.546 -114.369)"/>
    <path id="Path_521" data-name="Path 521" d="M38.209,212.053H47.4l-1.209-1.209v9.19l1.209-1.209h-9.19l1.209,1.209v-9.19a1.21,1.21,0,0,0-2.418,0v9.19a1.226,1.226,0,0,0,1.209,1.209H47.4a1.226,1.226,0,0,0,1.209-1.209v-9.19a1.226,1.226,0,0,0-1.209-1.209h-9.19a1.21,1.21,0,0,0,0,2.418" transform="translate(-29.544 -167.388)"/>
    <path id="Path_522" data-name="Path 522" d="M103.309,212.053h9.19l-1.209-1.209v9.19l1.209-1.209h-9.19l1.209,1.209v-9.19a1.21,1.21,0,0,0-2.418,0v9.19a1.226,1.226,0,0,0,1.209,1.209h9.19a1.226,1.226,0,0,0,1.209-1.209v-9.19a1.226,1.226,0,0,0-1.209-1.209h-9.19a1.21,1.21,0,0,0,0,2.418" transform="translate(-81.524 -167.388)"/>
    <path id="Path_523" data-name="Path 523" d="M168.409,212.053h9.19l-1.209-1.209v9.19l1.209-1.209h-9.19l1.209,1.209v-9.19a1.21,1.21,0,0,0-2.418,0v9.19a1.226,1.226,0,0,0,1.209,1.209h9.19a1.226,1.226,0,0,0,1.209-1.209v-9.19a1.226,1.226,0,0,0-1.209-1.209h-9.19a1.21,1.21,0,0,0,0,2.418" transform="translate(-133.505 -167.388)"/>
    <path id="Path_524" data-name="Path 524" d="M233.609,212.053h9.19l-1.209-1.209v9.19l1.209-1.209h-9.19l1.209,1.209v-9.19a1.21,1.21,0,0,0-2.418,0v9.19a1.226,1.226,0,0,0,1.209,1.209h9.19a1.226,1.226,0,0,0,1.209-1.209v-9.19a1.226,1.226,0,0,0-1.209-1.209h-9.19a1.21,1.21,0,0,0,0,2.418" transform="translate(-185.565 -167.388)"/>
    <path id="Path_525" data-name="Path 525" d="M298.709,212.053h9.19l-1.209-1.209v9.19l1.209-1.209h-9.19l1.209,1.209v-9.19a1.21,1.21,0,0,0-2.418,0v9.19a1.226,1.226,0,0,0,1.209,1.209h9.19a1.226,1.226,0,0,0,1.209-1.209v-9.19a1.226,1.226,0,0,0-1.209-1.209h-9.19a1.21,1.21,0,0,0,0,2.418" transform="translate(-237.546 -167.388)"/>
    <path id="Path_526" data-name="Path 526" d="M38.209,278.553H47.4l-1.209-1.209v9.19l1.209-1.209h-9.19l1.209,1.209v-9.19a1.21,1.21,0,0,0-2.418,0v9.19a1.226,1.226,0,0,0,1.209,1.209H47.4a1.226,1.226,0,0,0,1.209-1.209v-9.19a1.226,1.226,0,0,0-1.209-1.209h-9.19a1.21,1.21,0,0,0,0,2.418" transform="translate(-29.544 -220.486)"/>
    <path id="Path_527" data-name="Path 527" d="M103.309,278.553h9.19l-1.209-1.209v9.19l1.209-1.209h-9.19l1.209,1.209v-9.19a1.21,1.21,0,0,0-2.418,0v9.19a1.226,1.226,0,0,0,1.209,1.209h9.19a1.226,1.226,0,0,0,1.209-1.209v-9.19a1.226,1.226,0,0,0-1.209-1.209h-9.19a1.21,1.21,0,0,0,0,2.418" transform="translate(-81.524 -220.486)"/>
    <path id="Path_528" data-name="Path 528" d="M168.409,278.553h9.19l-1.209-1.209v9.19l1.209-1.209h-9.19l1.209,1.209v-9.19a1.21,1.21,0,0,0-2.418,0v9.19a1.226,1.226,0,0,0,1.209,1.209h9.19a1.226,1.226,0,0,0,1.209-1.209v-9.19a1.226,1.226,0,0,0-1.209-1.209h-9.19a1.21,1.21,0,0,0,0,2.418" transform="translate(-133.505 -220.486)"/>
    <path id="Path_529" data-name="Path 529" d="M233.609,278.553h9.19l-1.209-1.209v9.19l1.209-1.209h-9.19l1.209,1.209v-9.19a1.21,1.21,0,0,0-2.418,0v9.19a1.226,1.226,0,0,0,1.209,1.209h9.19a1.226,1.226,0,0,0,1.209-1.209v-9.19a1.226,1.226,0,0,0-1.209-1.209h-9.19a1.21,1.21,0,0,0,0,2.418" transform="translate(-185.565 -220.486)"/>
    <path id="Path_530" data-name="Path 530" d="M298.709,278.553h9.19l-1.209-1.209v9.19l1.209-1.209h-9.19l1.209,1.209v-9.19a1.21,1.21,0,0,0-2.418,0v9.19a1.226,1.226,0,0,0,1.209,1.209h9.19a1.226,1.226,0,0,0,1.209-1.209v-9.19a1.226,1.226,0,0,0-1.209-1.209h-9.19a1.21,1.21,0,0,0,0,2.418" transform="translate(-237.546 -220.486)"/>
    <path id="Path_531" data-name="Path 531" d="M270.531,17.58a3.18,3.18,0,0,1-3.124-3.124c-.02-.746,0-1.511,0-2.257,0-2.217-.06-4.434,0-6.65a3.133,3.133,0,0,1,6.227-.544,13.825,13.825,0,0,1,.04,2.237v4.01c0,1.028.02,2.076,0,3.1a3.2,3.2,0,0,1-3.144,3.224,1.21,1.21,0,0,0,0,2.418,5.692,5.692,0,0,0,5.26-3.789,10.912,10.912,0,0,0,.282-3.527V7.826a21.483,21.483,0,0,0-.081-3.224c-.786-5.1-7.9-6.348-10.338-1.773a8,8,0,0,0-.665,3.93v4.776a26.154,26.154,0,0,0,.081,3.769,5.611,5.611,0,0,0,5.461,4.675c1.572.081,1.552-2.338,0-2.4" transform="translate(-211.565 0)"/>
  </g>
</svg>
