<svg xmlns="http://www.w3.org/2000/svg" width="27.563" height="27.563" viewBox="0 0 27.563 27.563">
  <g id="Group_157" data-name="Group 157" transform="translate(-1017 -10441)">
    <path id="Path_558" data-name="Path 558" d="M27.563,13.781A13.781,13.781,0,1,0,11.628,27.4v-9.63h-3.5V13.781h3.5V10.745c0-3.454,2.058-5.362,5.205-5.362a21.184,21.184,0,0,1,3.085.269V9.044H18.18A1.992,1.992,0,0,0,15.935,11.2v2.585h3.822l-.611,3.984H15.935V27.4A13.785,13.785,0,0,0,27.563,13.781" transform="translate(1017 10441)" fill="#010201"/>
    <path id="Path_559" data-name="Path 559" d="M50.832,38.749l.611-3.984H47.621V32.18a1.992,1.992,0,0,1,2.246-2.152H51.6V26.636a21.184,21.184,0,0,0-3.085-.269c-3.148,0-5.205,1.908-5.205,5.362v3.036h-3.5v3.984h3.5v9.63a13.932,13.932,0,0,0,4.307,0v-9.63Z" transform="translate(985.314 10420.017)" fill="#fff"/>
  </g>
</svg>
