<svg xmlns="http://www.w3.org/2000/svg" xmlns:xlink="http://www.w3.org/1999/xlink" width="94.102" height="96.176" viewBox="0 0 94.102 96.176">
  <defs>
    <clipPath id="clip-path">
      <rect id="Rectangle_2213" data-name="Rectangle 2213" width="79.836" height="82.458" fill="none"/>
    </clipPath>
  </defs>
  <g id="Group_129" data-name="Group 129" transform="translate(0 15.233) rotate(-11)">
    <g id="Group_82" data-name="Group 82" transform="translate(0 0)" clip-path="url(#clip-path)">
      <path id="Path_506" data-name="Path 506" d="M57.517,56.573A4.144,4.144,0,0,1,59.053,57.6a4.769,4.769,0,0,1,1.2,4.176,3.355,3.355,0,0,1-2.463,2.673L42.714,68.234a3.586,3.586,0,0,1-3.258-1.083,4.117,4.117,0,0,1-1.055-3.8,3.474,3.474,0,0,1,2.434-2.626Zm1.334-10.71a5.316,5.316,0,0,1,1.376,4.8,4.167,4.167,0,0,1-3.01,3.211L40.482,58.048a4.5,4.5,0,0,1-4.319-1.367,5.05,5.05,0,0,1-1.348-4.7,4.24,4.24,0,0,1,2.831-3.268L54.52,44.494a4.9,4.9,0,0,1,4.332,1.369M55.414,33.907a5.338,5.338,0,0,1,1.376,4.8,4.135,4.135,0,0,1-3.016,3.2L37.039,46.077a4.469,4.469,0,0,1-4.313-1.369,5.025,5.025,0,0,1-1.348-4.685,4.155,4.155,0,0,1,3.01-3.212l16.7-4.279a4.957,4.957,0,0,1,4.323,1.375M10.547,2.7a9.869,9.869,0,0,1,7.158,3.275c3.886,5.271,4.352,11.255,5.22,20.7a1.434,1.434,0,0,0,1.806,1.173l46.79-11.8a4.649,4.649,0,0,1,3.571.314,3.716,3.716,0,0,1,1.735,2.235c.533,1.872-.15,4.015-3.217,4.875L33.626,34.236a6.957,6.957,0,0,0-5.07,5.223,7.658,7.658,0,0,0,2.021,7.053,7.849,7.849,0,0,0,2.937,1.9,7.087,7.087,0,0,0-1.522,3.016,7.645,7.645,0,0,0,2.03,7.053,7.74,7.74,0,0,0,2.786,1.835,6.22,6.22,0,0,0-1.222,2.457,6.736,6.736,0,0,0,1.738,6.2,6.962,6.962,0,0,0,.548.481l-3.662.914c-6.747,1.7-10.266,2.417-12.588,2.437s-3.63-.564-6.537-1.808C9.2,68.463,5.5,62.669,3.867,55.826A37.286,37.286,0,0,1,4.909,35.237L9.64,22.34c1.752-4.783,1.252-9.608-.934-15.082-.8-1.989-.615-3.1-.27-3.645A2.376,2.376,0,0,1,10.547,2.7M10.405.01a5.42,5.42,0,0,0-4.47,2.247C5,3.766,5.054,5.77,6.012,8.186c2.044,5.139,2.418,9.16.907,13.294L2.179,34.362A39.526,39.526,0,0,0,1.056,56.42c1.767,7.367,5.841,14.014,12.818,17,2.9,1.243,4.875,2.081,7.772,2.061s6.522-.816,13.307-2.52l23.591-5.92c5.745-1.44,6.14-9.608,2-11.835,5.279-4.413,1.918-11.9-2.44-12.98,3.384-3.29,1.64-9.065-1.833-11.116l18.173-5.069c4.363-1.216,6.042-5.026,5.167-8.128a6.445,6.445,0,0,0-3.01-3.848,7.823,7.823,0,0,0-5.818-.614l-45.19,11.4c-.769-8.483-1.393-14.817-5.509-20.395A11.9,11.9,0,0,0,10.405.01" transform="translate(0 6.975)"/>
      <path id="Path_507" data-name="Path 507" d="M6.032,0A1.445,1.445,0,0,0,4.724.853L.111,11.3a1.313,1.313,0,0,0,.778,1.755,1.487,1.487,0,0,0,1.888-.727L7.389,1.873A1.357,1.357,0,0,0,6.032,0" transform="translate(39.257 1.739)"/>
      <path id="Path_508" data-name="Path 508" d="M1.432,0A1.389,1.389,0,0,0,.012,1.355L0,12.339a1.392,1.392,0,0,0,1.429,1.425,1.4,1.4,0,0,0,1.446-1.41L2.887,1.362A1.4,1.4,0,0,0,1.432,0" transform="translate(29.954 0)"/>
      <path id="Path_509" data-name="Path 509" d="M9.691,0A1.5,1.5,0,0,0,8.7.407L.421,8.178a1.275,1.275,0,0,0,.006,1.9,1.511,1.511,0,0,0,2.039-.015L10.746,2.3A1.34,1.34,0,0,0,9.691,0" transform="translate(46.749 9.747)"/>
    </g>
  </g>
</svg>
