<svg id="Group_151" data-name="Group 151" xmlns="http://www.w3.org/2000/svg" xmlns:xlink="http://www.w3.org/1999/xlink" width="90.959" height="64.281" viewBox="0 0 90.959 64.281">
  <defs>
    <clipPath id="clip-path">
      <rect id="Rectangle_2202" data-name="Rectangle 2202" width="90.959" height="64.281" fill="none"/>
    </clipPath>
  </defs>
  <g id="Group_78" data-name="Group 78" clip-path="url(#clip-path)">
    <path id="Path_462" data-name="Path 462" d="M605.544,106.744h-6.806a.414.414,0,0,1-.414-.414V99.524a.414.414,0,0,1,.414-.414h6.806a.414.414,0,0,1,.414.414v6.806a.414.414,0,0,1-.414.414m-6.393-.828h5.979V99.938h-5.979Z" transform="translate(-516.146 -85.498)" fill="#231f20"/>
    <path id="Path_463" data-name="Path 463" d="M456.878,106.745h-6.806a.414.414,0,0,1-.414-.414V99.525a.414.414,0,0,1,.706-.293l6.806,6.806a.414.414,0,0,1-.293.706m-6.392-.828h5.394l-5.394-5.394Z" transform="translate(-387.899 -85.499)" fill="#231f20"/>
    <path id="Path_464" data-name="Path 464" d="M407.322,113.55h-6.806a.414.414,0,0,1-.414-.414V99.524a.414.414,0,0,1,.414-.414h6.806a.414.414,0,0,1,.414.414v13.613a.414.414,0,0,1-.414.414m-6.393-.828h5.979V99.938H400.93Z" transform="translate(-345.149 -85.498)" fill="#231f20"/>
    <path id="Path_465" data-name="Path 465" d="M506.433,70.8a.414.414,0,0,1-.293-.121l-6.806-6.806a.414.414,0,0,1-.121-.293V49.968a.414.414,0,0,1,.414-.414h6.806a.414.414,0,0,1,.414.414V70.387a.414.414,0,0,1-.414.414m-6.393-7.391,5.979,5.979V50.382h-5.979Z" transform="translate(-430.648 -42.748)" fill="#231f20"/>
    <path id="Path_466" data-name="Path 466" d="M555.989,21.246h-6.806a.414.414,0,0,1-.414-.414V.414A.414.414,0,0,1,549.183,0h6.806a.414.414,0,0,1,.414.414V20.832a.414.414,0,0,1-.414.414m-6.393-.828h5.979V.828H549.6Z" transform="translate(-473.397)" fill="#231f20"/>
    <rect id="Rectangle_2200" data-name="Rectangle 2200" width="2.013" height="10.146" transform="translate(0 17.891)" fill="#231f20"/>
    <path id="Path_467" data-name="Path 467" d="M27.906,151.018a3.241,3.241,0,0,1,3.431,3.092l-1.627.113a1.741,1.741,0,0,0-1.8-1.723c-1.063,0-1.8.789-1.8,2.271,0,1.466.741,2.255,1.8,2.255a1.758,1.758,0,0,0,1.8-1.756l1.627.145a3.241,3.241,0,0,1-3.431,3.092,3.745,3.745,0,1,1,0-7.489" transform="translate(-20.836 -130.276)" fill="#231f20"/>
    <path id="Path_468" data-name="Path 468" d="M89.729,155.995a3.207,3.207,0,0,1-3.414,2.512,3.509,3.509,0,0,1-3.769-3.64,3.675,3.675,0,0,1,3.72-3.849,3.319,3.319,0,0,1,3.511,3.543v.693H84.446a1.879,1.879,0,0,0,1.933,1.788,1.678,1.678,0,0,0,1.788-1.208Zm-1.836-1.949a1.6,1.6,0,0,0-1.643-1.611,1.761,1.761,0,0,0-1.772,1.611Z" transform="translate(-71.209 -130.276)" fill="#231f20"/>
    <rect id="Rectangle_2201" data-name="Rectangle 2201" width="1.933" height="10.146" transform="translate(19.809 17.891)" fill="#231f20"/>
    <path id="Path_469" data-name="Path 469" d="M173.86,156.59c0,.37.193.548.5.548a1.4,1.4,0,0,0,.6-.145v1.031a2,2,0,0,1-1.337.451,1.452,1.452,0,0,1-1.5-1.24,2.6,2.6,0,0,1-2.416,1.256c-1.482,0-2.384-.741-2.384-1.965,0-1.353,1.1-1.917,2.706-2.239l1.949-.386v-.161a1.137,1.137,0,0,0-1.24-1.272,1.358,1.358,0,0,0-1.4,1.176l-1.755-.161a2.959,2.959,0,0,1,3.237-2.464c1.836,0,3.044.87,3.044,2.738Zm-1.884-1.53-1.337.29c-.837.177-1.433.322-1.433,1.031,0,.483.371.773.983.773a1.788,1.788,0,0,0,1.788-1.917Z" transform="translate(-144.34 -130.276)" fill="#231f20"/>
    <path id="Path_470" data-name="Path 470" d="M231.518,158.313h-1.933v-7.1h1.933v1.16a2.474,2.474,0,0,1,2.319-1.353c1.9,0,2.593,1.288,2.593,2.867v4.429H234.5V154.27c0-1.1-.435-1.723-1.385-1.723-.983,0-1.594.773-1.594,1.965Z" transform="translate(-198.052 -130.275)" fill="#231f20"/>
    <path id="Path_471" data-name="Path 471" d="M293.279,139.055a2.5,2.5,0,0,1-2.448,1.546c-2.11,0-3.2-1.643-3.2-3.737s1.1-3.753,3.2-3.753a2.494,2.494,0,0,1,2.448,1.562v-4.413h1.933v10.147h-1.933Zm.016-2.335a1.889,1.889,0,0,0-1.884-2.094c-1.208,0-1.836.886-1.836,2.239,0,1.337.628,2.223,1.836,2.223a1.88,1.88,0,0,0,1.884-2.094Z" transform="translate(-248.122 -112.37)" fill="#231f20"/>
    <path id="Path_472" data-name="Path 472" d="M2.013,251.533V260H7.376v1.675H0V251.533Z" transform="translate(0 -216.986)" fill="#231f20"/>
    <path id="Path_473" data-name="Path 473" d="M62.615,251.533H64.6v1.884H62.615ZM64.58,261.68H62.647v-7.1H64.58Z" transform="translate(-54.015 -216.986)" fill="#231f20"/>
    <path id="Path_474" data-name="Path 474" d="M93.13,277.266a3.208,3.208,0,0,1-3.414,2.512,3.509,3.509,0,0,1-3.769-3.64,3.675,3.675,0,0,1,3.72-3.849,3.319,3.319,0,0,1,3.511,3.543v.693H87.848a1.878,1.878,0,0,0,1.933,1.787,1.678,1.678,0,0,0,1.788-1.208Zm-1.836-1.949a1.6,1.6,0,0,0-1.643-1.611,1.761,1.761,0,0,0-1.771,1.611Z" transform="translate(-74.142 -234.891)" fill="#231f20"/>
    <path id="Path_475" data-name="Path 475" d="M149.031,272.289a3.241,3.241,0,0,1,3.431,3.092l-1.627.113a1.742,1.742,0,0,0-1.8-1.723c-1.063,0-1.8.789-1.8,2.271,0,1.466.741,2.255,1.8,2.255a1.758,1.758,0,0,0,1.8-1.755l1.627.145a3.241,3.241,0,0,1-3.431,3.092,3.745,3.745,0,1,1,0-7.489" transform="translate(-125.325 -234.891)" fill="#231f20"/>
    <path id="Path_476" data-name="Path 476" d="M208.419,261.68h-1.933V251.534h1.933v4.2a2.474,2.474,0,0,1,2.319-1.353c1.9,0,2.593,1.288,2.593,2.867v4.429H211.4v-4.042c0-1.1-.435-1.723-1.385-1.723-.983,0-1.594.773-1.594,1.965Z" transform="translate(-178.126 -216.987)" fill="#231f20"/>
    <path id="Path_477" data-name="Path 477" d="M263.2,262.708h-1.015v-1.144l.483-.08c.693-.113.886-.467,1.047-1.127l.226-.966h1.176v1.965h1.933v1.353h-1.933v3.511c0,.612.274.886.854.886a2.981,2.981,0,0,0,1.208-.338v1.273a3.048,3.048,0,0,1-1.965.612,1.793,1.793,0,0,1-2.013-2Z" transform="translate(-226.172 -223.764)" fill="#231f20"/>
    <path id="Path_478" data-name="Path 478" d="M310.638,277.266a3.207,3.207,0,0,1-3.414,2.512,3.509,3.509,0,0,1-3.769-3.64,3.675,3.675,0,0,1,3.72-3.849,3.319,3.319,0,0,1,3.511,3.543v.693h-5.331a1.878,1.878,0,0,0,1.933,1.787,1.678,1.678,0,0,0,1.788-1.208Zm-1.836-1.949a1.6,1.6,0,0,0-1.643-1.611,1.761,1.761,0,0,0-1.772,1.611Z" transform="translate(-261.776 -234.891)" fill="#231f20"/>
    <path id="Path_479" data-name="Path 479" d="M367.3,279.585h-1.933v-7.1H367.3v1.16a2.474,2.474,0,0,1,2.319-1.353c1.9,0,2.593,1.288,2.593,2.867v4.429h-1.933v-4.042c0-1.1-.435-1.723-1.385-1.723-.982,0-1.594.773-1.594,1.965Z" transform="translate(-315.185 -234.891)" fill="#231f20"/>
    <path id="Path_480" data-name="Path 480" d="M424.615,277.169c.113.854.757,1.289,1.739,1.289.709,0,1.289-.242,1.289-.757,0-.483-.322-.693-1.031-.805l-1.127-.193c-1.514-.242-2.351-.805-2.351-2.126,0-1.353,1.143-2.287,2.947-2.287,1.965,0,3.141.886,3.27,2.464l-1.594.064c-.129-.805-.676-1.208-1.691-1.208-.692,0-1.144.306-1.144.789,0,.387.258.612.773.693l1.353.225c1.5.242,2.384.87,2.384,2.206,0,1.449-1.256,2.255-3.092,2.255-1.852,0-3.269-.805-3.4-2.545Z" transform="translate(-364.851 -234.891)" fill="#231f20"/>
    <path id="Path_481" data-name="Path 481" d="M474.61,262.708h-1.015v-1.144l.483-.08c.692-.113.886-.467,1.047-1.127l.226-.966h1.176v1.965h1.933v1.353h-1.933v3.511c0,.612.274.886.854.886a2.98,2.98,0,0,0,1.208-.338v1.273a3.047,3.047,0,0,1-1.965.612,1.793,1.793,0,0,1-2.013-2Z" transform="translate(-408.548 -223.764)" fill="#231f20"/>
    <path id="Path_482" data-name="Path 482" d="M522.051,277.266a3.207,3.207,0,0,1-3.414,2.512,3.509,3.509,0,0,1-3.769-3.64,3.675,3.675,0,0,1,3.72-3.849,3.319,3.319,0,0,1,3.511,3.543v.693h-5.331a1.878,1.878,0,0,0,1.933,1.787,1.678,1.678,0,0,0,1.788-1.208Zm-1.836-1.949a1.6,1.6,0,0,0-1.643-1.611,1.761,1.761,0,0,0-1.772,1.611Z" transform="translate(-444.153 -234.891)" fill="#231f20"/>
    <path id="Path_483" data-name="Path 483" d="M576.545,251.533h1.981v1.884h-1.981Zm1.965,10.147h-1.933v-7.1h1.933Z" transform="translate(-497.358 -216.986)" fill="#231f20"/>
    <path id="Path_484" data-name="Path 484" d="M604.86,279.585h-1.933v-7.1h1.933v1.16a2.474,2.474,0,0,1,2.319-1.353c1.9,0,2.593,1.288,2.593,2.867v4.429h-1.933v-4.042c0-1.1-.435-1.723-1.385-1.723-.982,0-1.594.773-1.594,1.965Z" transform="translate(-520.117 -234.891)" fill="#231f20"/>
    <path id="Path_485" data-name="Path 485" d="M6.8,379.57v-6.764H8.665v10.146H7.054L1.868,375.8v7.151H0V372.806H2Z" transform="translate(0 -321.602)" fill="#231f20"/>
    <path id="Path_486" data-name="Path 486" d="M76.2,401.05a3.745,3.745,0,1,1,3.753-3.736A3.576,3.576,0,0,1,76.2,401.05m0-1.466c1.192,0,1.8-.934,1.8-2.271,0-1.353-.612-2.287-1.8-2.287-1.176,0-1.788.934-1.788,2.287,0,1.337.612,2.271,1.788,2.271" transform="translate(-62.511 -339.507)" fill="#231f20"/>
    <path id="Path_487" data-name="Path 487" d="M140.667,395.655a2.153,2.153,0,0,0-1.16-.306c-1,0-1.675.709-1.675,2v3.511H135.9v-7.1h1.933v1.353a2.15,2.15,0,0,1,1.981-1.546,1.569,1.569,0,0,1,1,.29Z" transform="translate(-117.235 -339.507)" fill="#231f20"/>
    <path id="Path_488" data-name="Path 488" d="M181.391,399.7h.065l1.465-4.735h1.755l-2.255,7.1h-1.868l-1.288-4.687H179.2l-1.288,4.687h-1.885l-2.255-7.1h1.916l1.482,4.735h.064l1.289-4.735h1.562Z" transform="translate(-149.906 -340.72)" fill="#231f20"/>
    <path id="Path_489" data-name="Path 489" d="M262.274,399.133c0,.371.193.548.5.548a1.4,1.4,0,0,0,.6-.145v1.031a2,2,0,0,1-1.337.451,1.452,1.452,0,0,1-1.5-1.24,2.6,2.6,0,0,1-2.416,1.256c-1.482,0-2.384-.741-2.384-1.965,0-1.353,1.1-1.917,2.706-2.239l1.949-.386v-.161a1.137,1.137,0,0,0-1.24-1.272,1.357,1.357,0,0,0-1.4,1.176l-1.756-.161a2.959,2.959,0,0,1,3.237-2.464c1.836,0,3.044.87,3.044,2.738Zm-1.885-1.53-1.337.29c-.837.177-1.433.322-1.433,1.031,0,.483.371.773.982.773a1.788,1.788,0,0,0,1.788-1.917Z" transform="translate(-220.611 -339.506)" fill="#231f20"/>
    <path id="Path_490" data-name="Path 490" d="M311.759,404.712l1.095-2.609-2.947-7.135h2.029l1.933,4.848h.064l1.917-4.848h1.884l-4.075,9.744Z" transform="translate(-267.342 -340.721)" fill="#231f20"/>
    <path id="Path_491" data-name="Path 491" d="M386,398.005a3.508,3.508,0,0,1-1.53-.306.963.963,0,0,0-.58.805c0,.435.242.66.918.66h2.706c1.5,0,2.287.773,2.287,1.852,0,1.723-1.884,2.368-3.93,2.368-1.852,0-3.382-.644-3.382-1.933a1.627,1.627,0,0,1,1.482-1.578,1.13,1.13,0,0,1-.9-1.144,1.5,1.5,0,0,1,.982-1.288,2.164,2.164,0,0,1-.87-1.8c0-1.465,1.176-2.367,2.818-2.367a3.032,3.032,0,0,1,2.174.773,2.045,2.045,0,0,1,1.723-.95v.95a3.138,3.138,0,0,0-1.434.338,2.181,2.181,0,0,1,.371,1.256c0,1.465-1.192,2.368-2.835,2.368m-.129,4.67c1.739,0,2.979-.419,2.979-1.627,0-.741-.628-1.014-1.562-1.014h-2.206c-.854,0-1.594.274-1.594,1.176,0,1.031.983,1.466,2.384,1.466m.129-8.729a1.7,1.7,0,1,0,1.836,1.707A1.611,1.611,0,0,0,386,393.947" transform="translate(-329.953 -339.103)" fill="#231f20"/>
    <path id="Path_492" data-name="Path 492" d="M446.753,395.559a1.98,1.98,0,0,0-1.063-.274c-1.015,0-1.836,1.047-1.836,2.448v3.833h-.982v-6.99h.982v1.466a2.263,2.263,0,0,1,2.013-1.659,1.409,1.409,0,0,1,1,.322Z" transform="translate(-382.045 -340.216)" fill="#231f20"/>
    <path id="Path_493" data-name="Path 493" d="M481.758,400.39a.51.51,0,0,0,.58.548,1.435,1.435,0,0,0,.628-.177v.532a1.069,1.069,0,0,1-.918.418c-.693,0-1.192-.6-1.224-1.482a2.885,2.885,0,0,1-2.593,1.53,1.924,1.924,0,0,1-2.174-1.933c0-1.32,1.16-1.852,2.9-2.206l1.868-.387v-.354a1.584,1.584,0,0,0-1.723-1.723,1.939,1.939,0,0,0-2,1.562l-.838-.161a2.735,2.735,0,0,1,2.819-2.174,2.382,2.382,0,0,1,2.673,2.641Zm-.934-2.432-1.707.371c-1.273.274-2.062.531-2.062,1.466A1.193,1.193,0,0,0,478.407,401a2.425,2.425,0,0,0,2.416-2.609Z" transform="translate(-410.671 -340.216)" fill="#231f20"/>
    <path id="Path_494" data-name="Path 494" d="M534.846,401.566h-.982v-6.99h.982v1.289a2.544,2.544,0,0,1,2.351-1.482c1.8,0,2.561,1.176,2.561,2.85v4.333h-.983V397.2c0-1.24-.644-2.045-1.836-2.045a2.111,2.111,0,0,0-2.094,2.223Z" transform="translate(-460.539 -340.216)" fill="#231f20"/>
    <path id="Path_495" data-name="Path 495" d="M584.658,384.273h-1.079v-.483l.419-.081c.644-.129.773-.435.918-1.111l.209-1h.5v1.949h2.029v.725h-2.029v4.735c0,.628.258.934.9.934a2.808,2.808,0,0,0,1.369-.483v.693a2.58,2.58,0,0,1-1.707.58c-.934,0-1.53-.467-1.53-1.739Z" transform="translate(-503.426 -329.188)" fill="#231f20"/>
    <path id="Path_496" data-name="Path 496" d="M620.365,399.1a2.062,2.062,0,0,0,2.3,1.884c1.079,0,1.836-.4,1.836-1.224,0-.773-.548-1.015-1.53-1.192l-1.208-.209c-1.224-.209-1.981-.773-1.981-1.9,0-1.256,1.047-2.078,2.577-2.078,1.8,0,2.851.854,2.964,2.513l-.757.064a1.929,1.929,0,0,0-2.206-1.8c-1,0-1.659.451-1.659,1.192,0,.677.4,1.015,1.272,1.16l1.288.209c1.369.225,2.174.709,2.174,1.949,0,1.369-1.224,2.094-2.754,2.094-1.691,0-3-.837-3.108-2.561Z" transform="translate(-534.479 -340.216)" fill="#231f20"/>
  </g>
</svg>
