<svg id="Group_150" data-name="Group 150" xmlns="http://www.w3.org/2000/svg" xmlns:xlink="http://www.w3.org/1999/xlink" width="98.427" height="59.313" viewBox="0 0 98.427 59.313">
  <defs>
    <clipPath id="clip-path">
      <rect id="Rectangle_2205" data-name="Rectangle 2205" width="98.427" height="59.312" fill="none"/>
    </clipPath>
  </defs>
  <g id="Group_80" data-name="Group 80" transform="translate(0 0)" clip-path="url(#clip-path)">
    <path id="Path_497" data-name="Path 497" d="M47.576,6.077a.94.94,0,0,0,0,1.88A7.23,7.23,0,0,1,54.8,15.179a.94.94,0,0,0,1.88,0,9.112,9.112,0,0,0-9.1-9.1" transform="translate(-13.69 -1.784)"/>
    <path id="Path_498" data-name="Path 498" d="M73.294,0a13.337,13.337,0,0,0-8.521,3.06,9.869,9.869,0,0,0-14-.117A13.393,13.393,0,1,0,54.137,19.85l1.491,1.491a3,3,0,0,0,4.244,0l1.616-1.616A13.4,13.4,0,1,0,73.294,0M63.411,4.355a13.4,13.4,0,0,0-2.657,4.328,3.522,3.522,0,0,0-5.9-.2,13.388,13.388,0,0,0-2.7-4.258,7.989,7.989,0,0,1,11.256.134m-4.022,6.157a1.649,1.649,0,1,1-1.649-1.65,1.651,1.651,0,0,1,1.649,1.65M42.4,24.91A11.515,11.515,0,1,1,53.914,13.395,11.528,11.528,0,0,1,42.4,24.91m16.144-4.9a1.148,1.148,0,0,1-1.585,0l-1.986-1.986a13.391,13.391,0,0,0,.822-4.574A3.516,3.516,0,0,0,59.9,13.3c0,.033,0,.066,0,.1a13.376,13.376,0,0,0,.773,4.488Zm14.751,4.9A11.515,11.515,0,1,1,84.809,13.395,11.528,11.528,0,0,1,73.294,24.91" transform="translate(-8.515 0)"/>
    <path id="Path_499" data-name="Path 499" d="M91.286,6.077a.94.94,0,0,0,0,1.88,7.23,7.23,0,0,1,7.222,7.222.94.94,0,0,0,1.88,0,9.112,9.112,0,0,0-9.1-9.1" transform="translate(-26.522 -1.784)"/>
    <path id="Path_500" data-name="Path 500" d="M9.974,66.071a5.623,5.623,0,0,1,1.605,4.064,5.817,5.817,0,0,1-1.618,4.145A5.165,5.165,0,0,1,6.07,75.992H0V57.273H5.081A4.343,4.343,0,0,1,8.357,58.7a4.834,4.834,0,0,1,1.35,3.436,4.537,4.537,0,0,1-1.07,3,3.741,3.741,0,0,1,1.337.936m-4.894-6.1H2.7v4.386H5.108A1.706,1.706,0,0,0,6.445,63.7a2.324,2.324,0,0,0,.562-1.565A2.2,2.2,0,0,0,6.431,60.6a1.777,1.777,0,0,0-1.351-.629m.99,13.317a2.572,2.572,0,0,0,1.979-.923,3.223,3.223,0,0,0,.829-2.233,3.116,3.116,0,0,0-.856-2.219A2.575,2.575,0,0,0,6.07,67.06H2.7v6.231Z" transform="translate(0 -16.813)"/>
    <rect id="Rectangle_2203" data-name="Rectangle 2203" width="2.701" height="18.719" transform="translate(14.916 40.459)"/>
    <path id="Path_501" data-name="Path 501" d="M39.506,57.273h2.7V75.992h-2.7L33.543,63.531V75.992h-2.7V57.273h2.7l5.963,12.461Z" transform="translate(-9.054 -16.813)"/>
    <path id="Path_502" data-name="Path 502" d="M58.465,76.07a5.648,5.648,0,0,1-2.915-.8A7.735,7.735,0,0,1,53.2,73.1a10.841,10.841,0,0,1-1.952-6.525A11.035,11.035,0,0,1,53.2,60.026a6.381,6.381,0,0,1,5.268-2.942,5.566,5.566,0,0,1,2.875.815,7.822,7.822,0,0,1,2.34,2.126,11.006,11.006,0,0,1,1.979,6.552A10.814,10.814,0,0,1,63.679,73.1a7.672,7.672,0,0,1-2.34,2.152,5.554,5.554,0,0,1-2.875.816m0-2.7A3.928,3.928,0,0,0,61.727,71.2a9.315,9.315,0,0,0,0-9.252,3.841,3.841,0,0,0-3.262-2.166,3.731,3.731,0,0,0-3.021,1.792,8.194,8.194,0,0,0-1.5,5,8.5,8.5,0,0,0,1.337,4.786,3.772,3.772,0,0,0,3.182,2.006" transform="translate(-15.043 -16.758)"/>
    <path id="Path_503" data-name="Path 503" d="M87.955,75.992H84.826l-4.572-7.675-.91,1.31v6.364h-2.7V57.273h2.7v7.488l5.028-7.488h3.262l-5.749,8.584Z" transform="translate(-22.499 -16.813)"/>
    <path id="Path_504" data-name="Path 504" d="M96.755,75.992V57.273h2.7V73.291h7.407v2.7Z" transform="translate(-28.403 -16.813)"/>
    <rect id="Rectangle_2204" data-name="Rectangle 2204" width="2.701" height="18.719" transform="translate(81.644 40.459)"/>
    <path id="Path_505" data-name="Path 505" d="M134.248,68.529a4.317,4.317,0,0,1,.7,2.54,4.557,4.557,0,0,1-1.818,3.69,5.877,5.877,0,0,1-3.69,1.31,4.936,4.936,0,0,1-4.037-1.845,6.339,6.339,0,0,1-.99-1.792l2.594-.8a2.638,2.638,0,0,0,.508.909,2.424,2.424,0,0,0,1.925.829,3.046,3.046,0,0,0,1.953-.682,2.019,2.019,0,0,0,.855-1.618q.054-1.47-2.193-2.754l-2.086-1.15A8.387,8.387,0,0,1,125.1,64.6a4.313,4.313,0,0,1-.7-2.54,4.532,4.532,0,0,1,1.818-3.664,5.918,5.918,0,0,1,3.717-1.31,5.157,5.157,0,0,1,3.8,1.6,4.725,4.725,0,0,1,1.2,2.032l-2.593.776a2.051,2.051,0,0,0-.455-.8,2.3,2.3,0,0,0-1.979-.909,3.05,3.05,0,0,0-1.953.682,2.021,2.021,0,0,0-.855,1.618q-.054,1.39,2.22,2.754l2.032,1.123a7.025,7.025,0,0,1,2.888,2.567" transform="translate(-36.52 -16.758)"/>
  </g>
</svg>
